<svg width="119" height="70" viewBox="0 0 119 70" fill="none" xmlns="http://www.w3.org/2000/svg">
<g clip-path="url(#clip0_9_396)">
<path d="M11.48 56.85H23.4V68.77H11.48V56.85ZM0 0.150024V56.84H11.48V7.60002L29.51 7.57002C40.21 7.57002 45.28 13.73 45.33 28.74C45.28 43.74 40.21 49.06 29.51 49.06H23.4V56.84H31.22C32.64 56.84 34 57.4 35 58.41L45.75 69.16C46.41 69.82 47.54 69.35 47.54 68.42V59.51C47.54 58.04 48.73 56.84 50.21 56.84H56.7V0.150024H0ZM33.19 17.77H23.5V39.22H33.19V17.77Z" fill="black"/>
<path d="M83.52 40.84L80.75 53.77H76.77V40.84H73.7V56.7H83.15L83.94 52.57H87.29L88.09 56.7H91.14L87.8 40.84H83.52ZM84.41 50.14L85.61 43.88L86.82 50.14H84.4H84.41ZM100.85 50.7C100.74 50.28 100.59 49.92 100.39 49.61C100.19 49.3 99.94 49.04 99.62 48.84C99.31 48.64 98.94 48.51 98.53 48.47V48.42C98.87 48.31 99.17 48.17 99.45 47.98C99.72 47.79 99.95 47.55 100.13 47.27C100.31 46.98 100.45 46.64 100.55 46.23C100.66 45.82 100.71 45.37 100.71 44.87C100.71 44.21 100.63 43.62 100.47 43.13C100.31 42.63 100.07 42.21 99.76 41.86C99.45 41.51 99.05 41.26 98.57 41.09C98.09 40.92 97.5 40.84 96.82 40.84H91.9V56.7H96.73C97.52 56.7 98.19 56.58 98.73 56.34C99.27 56.1 99.71 55.77 100.05 55.35C100.39 54.93 100.63 54.44 100.78 53.87C100.93 53.3 101.01 52.68 101.01 52.01C101.01 51.56 100.96 51.12 100.85 50.71V50.7ZM94.94 43.49H96.15C96.44 43.49 96.68 43.52 96.87 43.59C97.06 43.66 97.21 43.76 97.33 43.91C97.44 44.05 97.53 44.25 97.58 44.5C97.63 44.75 97.66 45.05 97.66 45.42C97.66 45.74 97.63 46.02 97.57 46.27C97.51 46.52 97.41 46.73 97.27 46.9C97.13 47.07 96.96 47.21 96.77 47.31C96.57 47.41 96.32 47.46 96.01 47.46H94.93V43.5L94.94 43.49ZM97.71 52.99C97.63 53.25 97.52 53.47 97.38 53.62C97.23 53.78 97.06 53.89 96.85 53.95C96.64 54.01 96.4 54.04 96.11 54.04H94.94V49.76H96.11C96.4 49.76 96.66 49.8 96.88 49.87C97.1 49.95 97.28 50.07 97.42 50.26C97.56 50.45 97.66 50.67 97.73 50.95C97.8 51.23 97.83 51.57 97.83 51.98C97.83 52.39 97.79 52.72 97.72 52.99H97.71ZM81.57 1.37999C81.18 0.95999 80.7 0.64999 80.12 0.44999C79.54 0.24999 78.88 0.15999 78.13 0.15999H73.71V16.02H76.78V11.17H77.83C78.7 11.17 79.44 11.05 80.06 10.82C80.68 10.59 81.19 10.23 81.59 9.76999C81.99 9.29999 82.29 8.71999 82.47 8.03999C82.65 7.34999 82.74 6.37999 82.74 5.48999C82.74 4.54999 82.64 3.66999 82.44 3.00999C82.24 2.34999 81.95 1.80999 81.56 1.38999L81.57 1.37999ZM79.5 6.94999C79.42 7.27999 79.32 7.54999 79.2 7.76999C79.08 7.97999 78.9 8.13999 78.67 8.22999C78.44 8.32999 78.17 8.37999 77.85 8.37999H76.73V2.95999H77.85C78.17 2.95999 78.44 2.99999 78.66 3.07999C78.88 3.15999 79.06 3.30999 79.19 3.50999C79.32 3.70999 79.42 3.97999 79.5 4.29999C79.58 4.61999 79.61 5.10999 79.61 5.57999C79.61 6.04999 79.57 6.60999 79.5 6.93999V6.94999ZM83.16 0.14999H92.41V3.06999H89.32V16H86.23V3.07999H83.16V0.14999ZM102.26 11.58C102.26 14.49 100.41 16.37 97.54 16.37C96 16.37 94.53 15.83 93.3 14.81L93.28 14.79V11.51L93.4 11.63C94.58 12.8 95.98 13.44 97.33 13.44C98.68 13.44 99.29 12.85 99.29 11.68C99.29 10.77 98.9 10.34 97.49 9.63999L96.17 9.03999C94.06 8.06999 93.08 6.65999 93.08 4.60999C93.08 1.79999 94.89 -0.0100098 97.69 -0.0100098C99.4 -0.0100098 100.62 0.65999 101.34 1.21999L101.37 1.23999V4.51999L101.25 4.40999C100.19 3.40999 99.08 2.91999 97.87 2.91999C96.66 2.91999 95.96 3.43999 95.96 4.45999C95.96 5.40999 96.55 5.87999 97.63 6.40999L98.92 7.00999C101.29 8.08999 102.26 9.40999 102.26 11.57V11.58ZM81.29 20.49H84.2V36.35H80.99L76.95 25.45V36.35H73.7V20.49H77.43L81.29 30.94V20.49ZM88.61 33.54H93.24V36.35H85.54V20.49H93.04V23.3H88.61V26.9H92.55V29.53H88.61V33.54ZM106.17 20.49H109.31L106.81 36.35H102.86L101.45 25.14L100.01 36.35H96L93.57 20.49H96.78L98.3 32.46L99.78 20.49H103.13L104.63 32.49L106.17 20.49ZM118.5 31.92C118.5 34.83 116.65 36.71 113.78 36.71C112.24 36.71 110.77 36.17 109.54 35.15L109.52 35.13V31.85L109.64 31.97C110.82 33.14 112.22 33.78 113.57 33.78C114.92 33.78 115.53 33.19 115.53 32.02C115.53 31.11 115.14 30.68 113.73 29.98L112.41 29.38C110.3 28.41 109.32 27 109.32 24.95C109.32 22.14 111.13 20.33 113.93 20.33C115.64 20.33 116.86 21 117.58 21.56L117.61 21.58V24.85L117.49 24.74C116.43 23.74 115.32 23.25 114.11 23.25C112.9 23.25 112.2 23.77 112.2 24.79C112.2 25.74 112.79 26.21 113.87 26.74L115.16 27.34C117.53 28.42 118.5 29.74 118.5 31.9V31.92Z" fill="black"/>
</g>
<defs>
<clipPath id="clip0_9_396">
<rect width="118.51" height="69.47" fill="white"/>
</clipPath>
</defs>
</svg>
